<svg width="290" height="71" viewBox="0 0 290 71" fill="none" xmlns="http://www.w3.org/2000/svg">
<g clip-path="url(#clip0_82_38)">
<path d="M0 35.4869V70.9737H145H290V35.4869V7.62939e-06H145H0V35.4869ZM287.711 35.4869V68.6842H145H2.28947V35.4869V2.28948H145H287.711V35.4869Z" fill="#FDCB6E"/>
<path d="M4.19726 4.73157C3.96832 5.26578 3.892 19.4605 3.96832 36.25L4.19726 66.7763H145H285.803V35.4868V4.19736L145.153 3.96841C32.9683 3.81578 4.42621 3.96841 4.19726 4.73157ZM283.895 35.4868V64.8684H145H6.10516V35.4868V6.10525H145H283.895V35.4868Z" fill="#FDCB6E"/>
<path d="M19.0789 35.1053C19.0789 50.2158 19.2315 52.6579 20.2236 52.6579C21.2157 52.6579 21.3683 50.2921 21.3683 36.1737V19.7658L24.6499 19.9947L27.8552 20.2237L32.4341 32.9684C34.9525 40.0658 37.242 45.7895 37.471 45.7895C37.6999 45.7895 39.9894 40.0658 42.4315 32.9684L46.9341 20.2237L50.2157 19.9947L53.421 19.7658V36.1737C53.421 50.4447 53.5736 52.6579 54.5657 52.6579C55.5578 52.6579 55.7104 50.3684 55.5578 35.2579L55.3289 17.9342H50.8262H46.3236L42.1262 29.9158C39.8368 36.5553 37.6999 41.9737 37.3946 41.9737C37.0894 41.9737 34.9525 36.5553 32.6631 29.9158L28.4657 17.9342L23.8104 17.7053L19.0789 17.4763V35.1053Z" fill="#FDCB6E"/>
<path d="M62.4262 18.0105C62.0446 18.3158 61.8157 26.2526 61.8157 35.6395V52.6579H65.6315H69.4473V46.1711V39.6842H72.1183C74.713 39.6842 74.8657 39.9132 77.9946 46.1711L81.1999 52.6579H85.2446H89.2894L85.3973 45.4842L81.5815 38.2342L83.642 36.9368C89.5946 32.9684 88.8315 22.7421 82.2683 19.3842C79.5973 18.0105 63.4946 16.8658 62.4262 18.0105ZM78.7578 24.9553C79.5973 25.7184 80.1315 27.2447 80.1315 29.0763C80.1315 32.8158 78.0709 34.3421 73.1104 34.3421H69.4473V29V23.6579H73.4157C76.0104 23.6579 77.842 24.1158 78.7578 24.9553Z" fill="#FDCB6E"/>
<path d="M107.605 35.1053C107.605 50.2158 107.758 52.6579 108.75 52.6579C109.742 52.6579 109.895 50.2921 109.895 36.1737V19.7658L113.176 19.9947L116.382 20.2237L120.96 32.9684C123.479 40.0658 125.768 45.7895 125.997 45.7895C126.226 45.7895 128.516 40.0658 130.958 32.9684L135.46 20.2237L138.742 19.9947L141.947 19.7658V36.1737C141.947 50.4447 142.1 52.6579 143.092 52.6579C144.084 52.6579 144.237 50.3684 144.084 35.2579L143.855 17.9342H139.353H134.85L130.653 29.9158C128.363 36.5553 126.226 41.9737 125.921 41.9737C125.616 41.9737 123.479 36.5553 121.189 29.9158L116.992 17.9342L112.337 17.7053L107.605 17.4763V35.1053Z" fill="#FDCB6E"/>
<path d="M157.439 19.0026C151.182 21.9026 147.671 31.1369 149.426 40.1421C151.105 48.4605 156.295 53.0395 164.079 52.9632C173.313 52.8105 178.579 46.4763 178.579 35.5632C178.579 29.3053 177.434 25.7184 174.534 22.3605C170.261 17.4763 163.697 16.179 157.439 19.0026ZM166.292 23.7342C170.489 25.1842 172.626 32.3579 171.024 39.7605C169.879 45.1026 167.742 47.3158 163.926 47.3158C158.737 47.3158 156.447 43.5763 156.447 35.2579C156.447 29.3816 158.05 25.3369 161.026 23.8869C163.392 22.6658 163.316 22.6658 166.292 23.7342Z" fill="#FDCB6E"/>
<path d="M180.105 20.6053V23.6579H185.447H190.789V38.1579V52.6579H194.224H197.658V38.1579V23.6579H203H208.342V20.6053V17.5526H194.224H180.105V20.6053Z" fill="#FDCB6E"/>
<path d="M218.645 19.2316C211.624 23.3527 208.876 32.7395 211.776 42.5842C215.516 55.1 232.229 56.9316 238.258 45.5605C239.708 42.8895 240.013 41.1342 240.013 35.4869C240.013 27.4737 238.639 23.9632 234.061 20.3C230.092 17.0948 223.147 16.6369 218.645 19.2316ZM230.474 25.6421C232.153 27.3211 232.382 28.3132 232.687 34.0369C233.068 43.5 230.932 47.3158 225.284 47.3158C222.079 47.3158 219.332 44.6448 218.645 40.9053C217.653 35.8684 218.492 27.779 220.171 25.9474C223.3 22.4369 227.116 22.3605 230.474 25.6421Z" fill="#FDCB6E"/>
<path d="M245.737 35.1053V52.6579H249.171H252.605V46.1711V39.6842H255.505C258.329 39.6842 258.405 39.7605 261.61 46.1711L264.816 52.6579H268.632C270.692 52.6579 272.447 52.5053 272.447 52.2C272.447 51.9711 270.845 48.7658 268.86 45.1026L265.274 38.3868L267.716 36.1737C272.218 32.2053 272.371 25.2605 268.021 21.1395C265.503 18.6974 260.313 17.5526 251.766 17.5526H245.737V35.1053ZM262.526 25.1842C263.366 26.0237 264.053 27.7026 264.053 29C264.053 32.6632 261.763 34.3421 256.803 34.3421H252.605V29V23.6579H256.803C260.008 23.6579 261.382 24.0395 262.526 25.1842Z" fill="#FDCB6E"/>
<path d="M23.429 21.9026C23.1237 22.1316 22.8948 29.2289 22.8948 37.5474C22.8948 52.0474 22.9711 52.6579 24.4211 52.6579C25.7948 52.6579 25.9474 52.0474 26.1 40.7526L26.329 28.8474L30.5264 40.5237L34.7237 52.2763H37.3185H39.9895L44.0343 40.8289C46.3237 34.5711 48.3842 29.2289 48.6132 29C48.8421 28.7711 48.7658 34.0368 48.5369 40.6L48.0027 52.6579H49.9106H51.8948V37.3947C51.8948 24.2684 51.7421 22.0553 50.75 21.5974C50.0632 21.3684 49.3764 21.3684 49.1474 21.5974C48.9185 21.8263 46.4 28.4658 43.6527 36.4026C40.2948 45.7132 38.1579 50.75 37.4711 50.75C36.7842 50.75 35.1816 47.3158 33.0448 41.5921C31.2895 36.5553 28.8474 29.9158 27.779 26.8632C25.9474 21.8263 24.8027 20.5289 23.429 21.9026Z" fill="#FDCB6E"/>
<path d="M111.955 21.9026C111.65 22.1316 111.421 29.2289 111.421 37.5474C111.421 52.0474 111.497 52.6579 112.947 52.6579C114.321 52.6579 114.474 52.0474 114.626 40.7526L114.855 28.8474L119.053 40.5237L123.25 52.2763H125.845H128.516L132.561 40.8289C134.85 34.5711 136.911 29.2289 137.14 29C137.369 28.7711 137.292 34.0368 137.063 40.6L136.529 52.6579H138.437H140.421V37.3947C140.421 24.2684 140.269 22.0553 139.276 21.5974C138.59 21.3684 137.903 21.3684 137.674 21.5974C137.445 21.8263 134.926 28.4658 132.179 36.4026C128.821 45.7132 126.684 50.75 125.997 50.75C125.311 50.75 123.708 47.3158 121.571 41.5921C119.816 36.5553 117.374 29.9158 116.305 26.8632C114.474 21.8263 113.329 20.5289 111.955 21.9026Z" fill="#FDCB6E"/>
<path d="M94.3264 47.0105C91.8843 49.4526 93.3343 52.6579 96.9211 52.6579C99.2869 52.6579 100.737 51.3605 100.737 49.2237C100.737 45.9421 96.6922 44.5684 94.3264 47.0105Z" fill="#FDCB6E"/>
</g>
<defs>
<clipPath id="clip0_82_38">
<rect width="290" height="70.9737" fill="white"/>
</clipPath>
</defs>
</svg>
